<svg version="1.1" id="Layer_1" xmlns="http://www.w3.org/2000/svg" xmlns:xlink="http://www.w3.org/1999/xlink" x="0px" y="0px"
	 width="100%" viewBox="0 0 512 512" enable-background="new 0 0 512 512" xml:space="preserve">
<path fill="none" opacity="1.000000" stroke="none" 
	d="
M300.000000,513.000000 
	C200.024277,513.000000 100.548546,513.000000 1.036411,513.000000 
	C1.036411,342.399261 1.036411,171.798492 1.036411,1.098866 
	C171.559067,1.098866 342.118225,1.098866 512.838684,1.098866 
	C512.838684,171.666550 512.838684,342.333252 512.838684,513.000000 
	C442.131805,513.000000 371.315887,513.000000 300.000000,513.000000 
M169.018341,479.518402 
	C172.302200,481.326416 175.406494,483.655792 178.898819,484.858521 
	C202.865555,493.112488 227.628723,497.741852 252.914902,497.753204 
	C268.465454,497.760162 284.079681,495.844482 299.553223,493.899994 
	C321.524567,491.138977 342.214386,483.670929 362.143494,474.290802 
	C377.518860,467.054047 391.677856,457.780304 405.277557,447.494995 
	C420.158783,436.240509 433.317749,423.257568 445.176483,409.073792 
	C461.138428,389.982300 473.835144,368.804504 483.209534,345.587463 
	C494.288727,318.148224 500.333710,289.673523 500.738190,260.244629 
	C500.933319,246.047409 498.723846,231.765869 496.948700,217.604553 
	C494.130005,195.118729 486.448059,174.009674 476.825867,153.666779 
	C467.206360,133.329605 454.632294,114.768433 439.493774,98.150574 
	C425.914520,83.244331 411.213928,69.398499 394.363342,58.162151 
	C378.895996,47.848171 362.599457,39.135921 345.131531,32.438267 
	C318.281921,22.143431 290.576263,16.800163 261.938934,16.077311 
	C254.687592,15.894276 247.376846,16.327103 240.155884,17.077930 
	C228.773697,18.261440 217.278946,19.185423 206.126480,21.587284 
	C181.346024,26.924150 157.849701,35.825256 135.767914,48.533379 
	C120.522194,57.307335 106.253883,67.366600 93.403496,79.255096 
	C74.253807,96.971375 57.597012,116.732323 44.600548,139.598373 
	C31.174776,163.219727 21.784826,188.181824 17.096495,214.865570 
	C15.455444,224.205673 15.331543,233.804474 13.897751,243.190887 
	C12.225467,254.138611 12.838508,264.634979 16.897923,275.042816 
	C23.517387,292.014282 42.767124,307.559814 62.429798,306.877869 
	C68.559639,306.665283 74.769226,305.496246 80.717392,303.917572 
	C97.806786,299.382019 115.014709,295.099518 131.731796,289.411804 
	C146.971100,284.226898 163.608414,288.187347 173.057175,300.705383 
	C182.861740,313.694763 184.265823,329.413025 174.425095,343.989716 
	C166.947983,355.065247 159.011368,365.847961 150.911224,376.480591 
	C142.813828,387.109650 137.253311,398.890778 136.154617,412.087189 
	C133.787170,440.522827 145.019394,462.837189 169.018341,479.518402 
z"/>
<path fill="#DD368F" opacity="1.000000" stroke="none" 
	d="
M168.720490,479.297058 
	C145.019394,462.837189 133.787170,440.522827 136.154617,412.087189 
	C137.253311,398.890778 142.813828,387.109650 150.911224,376.480591 
	C159.011368,365.847961 166.947983,355.065247 174.425095,343.989716 
	C184.265823,329.413025 182.861740,313.694763 173.057175,300.705383 
	C163.608414,288.187347 146.971100,284.226898 131.731796,289.411804 
	C115.014709,295.099518 97.806786,299.382019 80.717392,303.917572 
	C74.769226,305.496246 68.559639,306.665283 62.429798,306.877869 
	C42.767124,307.559814 23.517387,292.014282 16.897923,275.042816 
	C12.838508,264.634979 12.225467,254.138611 13.897751,243.190887 
	C15.331543,233.804474 15.455444,224.205673 17.096495,214.865570 
	C21.784826,188.181824 31.174776,163.219727 44.600548,139.598373 
	C57.597012,116.732323 74.253807,96.971375 93.403496,79.255096 
	C106.253883,67.366600 120.522194,57.307335 135.767914,48.533379 
	C157.849701,35.825256 181.346024,26.924150 206.126480,21.587284 
	C217.278946,19.185423 228.773697,18.261440 240.155884,17.077930 
	C247.376846,16.327103 254.687592,15.894276 261.938934,16.077311 
	C290.576263,16.800163 318.281921,22.143431 345.131531,32.438267 
	C362.599457,39.135921 378.895996,47.848171 394.363342,58.162151 
	C411.213928,69.398499 425.914520,83.244331 439.493774,98.150574 
	C454.632294,114.768433 467.206360,133.329605 476.825867,153.666779 
	C486.448059,174.009674 494.130005,195.118729 496.948700,217.604553 
	C498.723846,231.765869 500.933319,246.047409 500.738190,260.244629 
	C500.333710,289.673523 494.288727,318.148224 483.209534,345.587463 
	C473.835144,368.804504 461.138428,389.982300 445.176483,409.073792 
	C433.317749,423.257568 420.158783,436.240509 405.277557,447.494995 
	C391.677856,457.780304 377.518860,467.054047 362.143494,474.290802 
	C342.214386,483.670929 321.524567,491.138977 299.553223,493.899994 
	C284.079681,495.844482 268.465454,497.760162 252.914902,497.753204 
	C227.628723,497.741852 202.865555,493.112488 178.898819,484.858521 
	C175.406494,483.655792 172.302200,481.326416 168.720490,479.297058 
M285.043823,433.484161 
	C286.110962,432.736328 287.426880,432.186920 288.206299,431.209625 
	C294.995941,422.695984 299.447021,413.484589 299.117920,402.065094 
	C298.580688,383.423126 283.921265,366.204590 263.519562,364.101166 
	C236.335831,361.298584 215.632370,387.126373 220.882874,410.706085 
	C223.935303,424.414337 231.441650,434.458344 244.072311,439.791199 
	C258.347595,445.818420 272.211761,444.149017 285.043823,433.484161 
M371.171478,239.673645 
	C375.479706,239.751221 379.945190,240.607376 384.069427,239.774155 
	C403.924377,235.762756 417.271545,219.655380 417.119263,199.539612 
	C416.937195,175.493607 392.001038,155.097031 366.790955,162.587646 
	C347.846161,168.216629 334.880981,188.181473 338.864594,207.805862 
	C342.074677,223.619751 354.899628,236.974731 371.171478,239.673645 
M164.488892,151.991394 
	C145.826553,134.383087 117.907944,138.255005 104.339806,158.657745 
	C94.933685,172.801956 95.224197,188.332321 104.456856,202.613449 
	C112.560738,215.148590 128.923828,222.469467 144.663971,219.180557 
	C159.801559,216.017548 169.787781,207.058304 174.670563,193.173950 
	C179.989578,178.049194 176.208725,164.159256 164.488892,151.991394 
M229.997116,125.702324 
	C230.511581,135.913834 235.194077,144.044769 242.447189,150.959656 
	C254.472733,162.424438 275.427124,164.294449 289.292908,155.432159 
	C300.865387,148.035629 307.306915,138.026657 308.145477,124.073692 
	C308.879211,111.865326 305.208771,101.309113 296.513428,93.294998 
	C284.289917,82.029129 269.626648,78.639114 253.911758,85.158226 
	C237.203018,92.089607 228.117310,108.042992 229.997116,125.702324 
M368.950714,296.055328 
	C368.202362,296.366577 367.464783,296.707428 366.704102,296.984772 
	C346.036926,304.519470 337.023407,321.487976 340.274017,341.992371 
	C343.704437,363.631012 365.898071,377.735382 386.556091,373.095764 
	C400.958588,369.861145 411.110077,361.851685 415.955566,347.982025 
	C421.145538,333.126343 418.677551,319.146515 407.879089,307.580322 
	C397.636658,296.609619 384.606049,292.921448 368.950714,296.055328 
z"/>
<path fill="#000000" opacity="1.000000" stroke="none" 
	d="
M284.779114,433.740295 
	C272.211761,444.149017 258.347595,445.818420 244.072311,439.791199 
	C231.441650,434.458344 223.935303,424.414337 220.882874,410.706085 
	C215.632370,387.126373 236.335831,361.298584 263.519562,364.101166 
	C283.921265,366.204590 298.580688,383.423126 299.117920,402.065094 
	C299.447021,413.484589 294.995941,422.695984 288.206299,431.209625 
	C287.426880,432.186920 286.110962,432.736328 284.779114,433.740295 
z"/>
<path fill="#000000" opacity="1.000000" stroke="none" 
	d="
M370.819885,239.407074 
	C354.899628,236.974731 342.074677,223.619751 338.864594,207.805862 
	C334.880981,188.181473 347.846161,168.216629 366.790955,162.587646 
	C392.001038,155.097031 416.937195,175.493607 417.119263,199.539612 
	C417.271545,219.655380 403.924377,235.762756 384.069427,239.774155 
	C379.945190,240.607376 375.479706,239.751221 370.819885,239.407074 
z"/>
<path fill="#000000" opacity="1.000000" stroke="none" 
	d="
M164.743225,152.243134 
	C176.208725,164.159256 179.989578,178.049194 174.670563,193.173950 
	C169.787781,207.058304 159.801559,216.017548 144.663971,219.180557 
	C128.923828,222.469467 112.560738,215.148590 104.456856,202.613449 
	C95.224197,188.332321 94.933685,172.801956 104.339806,158.657745 
	C117.907944,138.255005 145.826553,134.383087 164.743225,152.243134 
z"/>
<path fill="#000000" opacity="1.000000" stroke="none" 
	d="
M229.994110,125.269684 
	C228.117310,108.042992 237.203018,92.089607 253.911758,85.158226 
	C269.626648,78.639114 284.289917,82.029129 296.513428,93.294998 
	C305.208771,101.309113 308.879211,111.865326 308.145477,124.073692 
	C307.306915,138.026657 300.865387,148.035629 289.292908,155.432159 
	C275.427124,164.294449 254.472733,162.424438 242.447189,150.959656 
	C235.194077,144.044769 230.511581,135.913834 229.994110,125.269684 
z"/>
<path fill="#000000" opacity="1.000000" stroke="none" 
	d="
M369.376221,296.031403 
	C384.606049,292.921448 397.636658,296.609619 407.879089,307.580322 
	C418.677551,319.146515 421.145538,333.126343 415.955566,347.982025 
	C411.110077,361.851685 400.958588,369.861145 386.556091,373.095764 
	C365.898071,377.735382 343.704437,363.631012 340.274017,341.992371 
	C337.023407,321.487976 346.036926,304.519470 366.704102,296.984772 
	C367.464783,296.707428 368.202362,296.366577 369.376221,296.031403 
z"/>
</svg>